<?xml version="1.0" encoding="UTF-8"?>
<svg id="Layer_1" data-name="Layer 1" xmlns="http://www.w3.org/2000/svg" version="1.1" viewBox="0 0 512 512">
  <defs>
    <style>
      .cls-1 {
        fill: #adbdcb;
      }

      .cls-1, .cls-2, .cls-3, .cls-4, .cls-5, .cls-6, .cls-7, .cls-8, .cls-9, .cls-10, .cls-11, .cls-12 {
        stroke-width: 0px;
      }

      .cls-2 {
        fill: #8fa3ad;
      }

      .cls-3 {
        fill: #6f8595;
      }

      .cls-4 {
        fill: #a1afb9;
      }

      .cls-5 {
        fill: #8a9eaa;
      }

      .cls-6 {
        fill: #4f6b79;
      }

      .cls-7 {
        fill: #c8d6e1;
      }

      .cls-8 {
        fill: #a9a7ae;
      }

      .cls-9 {
        fill: #99a8b4;
      }

      .cls-10 {
        fill: #afc2ca;
      }

      .cls-11 {
        fill: #a4b5c4;
      }

      .cls-12 {
        fill: #fefefe;
      }
    </style>
  </defs>
  <path class="cls-12" d="M104.9,292.1v118.2c0,5.7.6,6.4,6.5,6.4h83.4c6.2,0,6.7-.6,6.7-6.9v-124.9c0-3,.9-5.1,2.9-7.2,17.9-18.8,35.7-37.6,53.6-56.4,2.8-3,9.4-3,12.3,0,18.2,19,36.4,38,54.6,57,1.8,1.9,2.5,3.7,2.5,6.2v126.1c0,5.5.8,6.2,6.3,6.2h83.4c6.5,0,7-.4,7-7v-237.9c0-2.7-1.3-4.4-4.1-4.2-2.6.2-2.8-1.1-2.7-3.1v-26.2c0-6.1-.5-6.8-6.6-6.6-2.8,0-3.2-1-3.2-3.4.1-8.1,0-16.2,0-24.3s-1.5-5.1-4.9-5h-6.4c-2.2.2-3.1-.6-3-2.9.2-5.4,0-10.7,0-16.1s-1.4-4.6-4.5-4.5c-1.7,0-3.5-.2-5.2,0-3.2.4-4.4-.5-4.2-4,.3-5.7.1-11.5,0-17.2,0-2.4-1.1-4.2-3.8-4.2s-3.7,1.7-3.7,4.2v11.6c-.1,3.1,1.4,7-.7,9-1.8,1.8-5.7.5-8.7.5s-4.7,1.6-4.7,4.8v11.2c0,5-2.5,7.5-7.6,7.5h-1.5c-4,0-5.1,1.2-5.1,5.2,0,8-.2,16,0,23.9,0,3.1-1,3.7-3.8,3.6-5.1-.2-6,.9-6,6.1v26.9c0,1.4.4,3.1-2.1,2.9-3.6-.3-4.8,1.8-4.7,5.1v13.8c0,2-.3,2.8-2.6,2.8h-120.5c-2.1,0-2.8-.6-2.7-2.7.1-4.9,0-9.7,0-14.6s-1.2-4.6-4.2-4.5c-2.3.1-2.6-.8-2.6-2.8v-26.2c0-6.3-.5-7-6.7-6.9-2.5,0-3.1-.7-3.1-3.1.1-8.1,0-16.2,0-24.3s-1.1-5.2-5.4-5.3h-6.4c-2,0-2.6-.6-2.5-2.6.1-5.4,0-10.7,0-16.1s-1.5-5.1-5-4.9h-6.4c-2.2.2-2.8-.7-2.7-2.8.1-5.2,0-10.5,0-15.7s.9-6.5-3.6-6.9c-2.8-.3-3.9,1.7-3.9,6.7v16.1c0,2-.6,2.7-2.6,2.5h-6.7c-2.2,0-4.6,1.3-4.6,4.5v10.1c0,5.8-3,8.8-8.9,8.9-4.3,0-5.3,1.1-5.3,5.3,0,7.9-.2,15.7,0,23.6,0,3.1-.7,4-3.9,3.9-5-.2-5.9.8-5.9,5.8v27.3c0,1.1.6,2.4-1.4,2.8-5.3.9-5.3,1-5.3,6.4v118.2h.9Z"/>
  <path class="cls-3" d="M399.8,282.4v102.4c0,3.5-.9,4.5-4.4,4.4-6.9-.2-6.9,0-6.9-6.9v-202.6c0-3.8,1-4.9,4.8-4.7,6.5.3,6.6,0,6.6,6.5v100.9h-.1Z"/>
  <path class="cls-2" d="M381.1,282.4v102.1c0,3.6-.6,5.1-4.6,4.8-6.7-.4-6.7,0-6.7-6.8v-202.6c0-5.4-.6-4.8,4.7-4.9,4.3,0,6.5,2.2,6.5,6.5v100.9h.1Z"/>
  <path class="cls-3" d="M362.4,282v102.4c0,3.7-.8,5-4.7,4.8-6.6-.3-6.6,0-6.6-6.9v-202.3c0-3.3,1.7-5,5-5s5.4,2.1,6.3,6.4v100.6h0Z"/>
  <path class="cls-2" d="M158.8,282.4v102.1c0,3.6-.6,5.1-4.6,4.8-6.7-.4-6.7,0-6.7-6.8v-202.6c0-3.3,1.6-4.9,4.7-4.9s6.5,2.2,6.5,6.5v100.9h.1Z"/>
  <path class="cls-3" d="M128.9,281.9v-102.4c0-3.2.5-4.6,4.2-4.5,7.1.3,7.1,0,7.1,7.1v202.3c0,3.2-1.6,4.8-4.9,4.8-7.4,0-6.3,1-6.3-6.3v-100.9h-.1Z"/>
  <path class="cls-3" d="M166.3,281.7v-102.4c0-3.5.9-4.5,4.4-4.3,6.9.2,7,0,7,6.9v202.6c0,3.8-.9,4.9-4.7,4.7-6.6-.3-6.6,0-6.6-6.5v-100.9h0Z"/>
  <path class="cls-10" d="M112.4,282v-102.5c0-1.5-1-3.8.9-4.3,2.3-.6,4.9-.2,7.4,0,.6,0,.6,1,.6,1.6v207.9c0,1.5.9,3.7-.8,4.4-2.3.9-5,.6-7.4.1-1.3-.3-.8-1.9-.8-3v-104.3h.1Z"/>
  <path class="cls-2" d="M416.3,282.8v102.9c0,3-.6,4.4-3.9,4-2.7-.3-5.3.5-5.3-4,.1-69.1.1-138.1,0-207.2,0-4.2,2.4-3.4,4.8-3.4s4.4-.4,4.4,3.4c-.2,34.8,0,69.6,0,104.4h0Z"/>
  <path class="cls-2" d="M334.7,281.6v-102.4c0-1.3-.9-3.5,1-3.9,2.4-.6,4.9-.5,7.4,0,.3,0,.5,1,.6,1.6v207.5c0,1.5.9,3.8-.8,4.4-2.3.9-5,.7-7.4,0-1.3-.3-.8-1.9-.8-3v-104.4.2h0Z"/>
  <path class="cls-2" d="M185,281.6v-102.4c0-1.4-.9-3.5.9-3.9,2.4-.5,4.9-.1,7.4,0,.2,0,.5,1,.6,1.6.1.9,0,1.7,0,2.6v204.9c0,1.5.9,3.8-.8,4.4-2.3.9-5,.7-7.4,0-1.3-.3-.8-1.9-.8-3v-104.3h.1Z"/>
  <path class="cls-6" d="M375.7,397.2h37c2.7,0,3.7.7,3.7,3.5,0,5.7-2.8,8.5-8.3,8.5h-69.2c-3.2,0-4.3-.7-4.2-4.1.2-8,0-8,8.2-8h32.9-.1Z"/>
  <path class="cls-6" d="M121.4,397.2h68.7c3.2,0,3.9,1.1,3.9,4.1-.1,8,0,8-8.1,8h-64.6v-12.1h.1Z"/>
  <path class="cls-8" d="M302.1,211.7h-22.1c-2.3,0-3.1-.7-2.9-3,.2-3.1.1-6.2,0-9.3,0-1.9.5-2.6,2.5-2.6h45.2c1.8,0,2.4.7,2.3,2.4,0,3.4-.1,6.7,0,10.1,0,2.1-.9,2.5-2.7,2.4h-22.4.1Z"/>
  <path class="cls-8" d="M226,211.7h-21.3c-2.3,0-3.4-.5-3.2-3.1.2-3.1.1-6.2,0-9.3,0-2,.7-2.6,2.6-2.6h44.1c1.8,0,2.8.4,2.7,2.5-.3,4,1.5,8.9-.7,11.6-2,2.5-7,.7-10.7.8-4.5.2-9,0-13.5,0h0Z"/>
  <path class="cls-6" d="M375,98.7c-2.6-.3-6.7,1.4-8.8-.6-2.3-2.2-.7-6.4-.8-9.7-.1-6-.7-5.4,5.3-5.5h12.3c1.9,0,2.7.7,2.6,2.6,0,3.5-.1,7,0,10.4,0,2.2-.9,2.8-2.9,2.7h-7.7Z"/>
  <path class="cls-11" d="M370.8,153.4c0-3.8.2-7.7,0-11.5-.2-3.1,1.7-2.9,3.6-2.7,1.7.2,4.5-1.4,4.5,2.4,0,7.8-.1,15.6,0,23.5,0,3.5-2.4,2.4-4.1,2.5-1.8,0-4.1.8-4-2.6.2-3.8,0-7.7,0-11.5h0Z"/>
  <path class="cls-11" d="M156.4,153.3c0,3.8-.2,7.7,0,11.5.2,3-1.7,2.9-3.6,2.6-1.7-.2-4.5,1.4-4.5-2.5.1-7.8,0-15.6,0-23.5s2.8-2.2,4.5-2.4c1.9-.2,3.8-.4,3.6,2.6-.2,3.8,0,7.7,0,11.5v.2h0Z"/>
  <path class="cls-1" d="M187.3,153.3v11.5c0,1.8-.3,2.6-2.4,2.7-5.9.2-5.9.3-5.9-5.5s.2-13.4,0-20.1c-.1-3.3,1.8-3,3.8-2.8,1.8.2,4.8-1.5,4.6,2.6-.2,3.8,0,7.7,0,11.5h-.1Z"/>
  <path class="cls-1" d="M409.6,153.4c0,3.7-.1,7.5,0,11.2,0,2.2-.5,3.1-2.9,3-6.7-.2-5.3.5-5.4-5.3,0-6.7.2-13.5,0-20.2-.2-4,2.4-2.8,4.4-2.9,2.1-.1,4.3-.5,4,3-.3,3.7,0,7.5,0,11.2h-.1Z"/>
  <path class="cls-9" d="M363.7,153.6v11.5c0,3.6-2.6,2.2-4.2,2.3-1.7,0-3.9.8-3.8-2.4.1-7.9,0-15.9,0-23.8s2.5-2.1,4-2.1,4-1.1,4,2.2v12.3Z"/>
  <path class="cls-4" d="M386.2,153.1c0-3.8.1-7.7,0-11.5-.1-3.3,2.2-2.4,3.8-2.3,1.6,0,3.9-.9,3.8,2.3-.1,7.9-.1,15.9,0,23.8,0,3-2.1,2.2-3.6,2.2s-4,1.2-4-2.1v-12.3h0Z"/>
  <path class="cls-4" d="M141,153.5c0,3.7-.2,7.5,0,11.2.2,3.2-1.7,2.9-3.8,2.9s-4,.7-3.9-2.7c.2-7.7.2-15.4,0-23.1,0-3.4,2.1-2.6,3.9-2.7,2,0,4-.4,3.8,2.8-.2,3.8,0,7.7,0,11.5h0Z"/>
  <path class="cls-4" d="M171.5,153.3c0,3.9-.2,7.7,0,11.6.2,3.1-1.8,2.7-3.6,2.6-1.8,0-4.1.9-4.1-2.6.2-7.7.2-15.5,0-23.2,0-3.5,2.3-2.5,4-2.6,1.8,0,3.8-.6,3.7,2.6-.2,3.9,0,7.7,0,11.6h0Z"/>
  <path class="cls-7" d="M125.9,153.6v11.6c0,3-1.8,2.3-3.4,2.3s-3.5.6-3.5-2.3v-23.9c0-3.1,2.2-2,3.6-2.1,1.5,0,3.4-.7,3.2,2.1-.2,4.1,0,8.2,0,12.3h.1Z"/>
  <path class="cls-1" d="M348.2,153c0,4-.2,8,0,11.9.2,3.1-1.9,2.5-3.6,2.6-1.8,0-3.3.2-3.3-2.6.2-7.8.2-15.7,0-23.5,0-2.9,1.8-2.4,3.4-2.4s3.6-.6,3.5,2.3c-.2,3.8,0,7.7,0,11.5v.2Z"/>
  <path class="cls-6" d="M152.1,83.1c3.6,0,8.1-1.5,10.4.6,2.4,2.2.4,6.8.9,10.3.5,3.6-.6,5.4-4.6,4.8-2.2-.3-4.5,0-6.7,0v-15.6h0Z"/>
  <path class="cls-3" d="M177.5,119.3v10.1c0,3-2,2.2-3.6,2.3-1.7.1-3.2.2-3.2-2.4.1-6.8.1-13.7,0-20.5,0-2.8,1.7-2.5,3.4-2.5s3.5,0,3.4,2.6c-.2,3.5,0,7,0,10.4h0Z"/>
  <path class="cls-5" d="M163.3,118.9c0,3.5-.1,7,0,10.4.1,2.6-1.6,2.3-3.2,2.3s-3.6.6-3.6-2.3c.1-7,0-13.9,0-20.9s1.9-2.1,3.4-2.1,3.4-.5,3.3,2.1v10.4h.1Z"/>
  <path class="cls-3" d="M399.8,119.3v10.1c0,2.9-2,2.2-3.6,2.3-1.7,0-3.2.2-3.2-2.4v-20.9c0-2.7,1.9-2.1,3.4-2.1s3.4-.5,3.4,2.2v10.8h0Z"/>
  <path class="cls-5" d="M357.8,119.3c0,3.2-.1,6.5,0,9.7.2,2.7-1.4,2.8-3.3,2.7-1.7,0-3.5.4-3.5-2.4.1-6.8.1-13.7,0-20.5,0-2.5,1.5-2.4,3.2-2.4s3.6,0,3.5,2.5v10.5h0Z"/>
  <path class="cls-3" d="M149.1,119.2v10.1c0,2.5-1.4,2.5-3.1,2.4-1.6,0-3.6.6-3.6-2.3v-20.1c0-2.7,1.6-2.9,3.6-2.9s3.2.4,3.1,2.9c-.2,3.3,0,6.7,0,10.1v-.2Z"/>
  <path class="cls-5" d="M385.6,119.2c0,3.4-.1,6.7,0,10.1.1,2.5-1.4,2.5-3.1,2.4-1.6-.1-3.7.7-3.6-2.3v-20.5c0-3,2.1-2.4,3.9-2.5,2.1-.2,2.9.6,2.8,2.8-.1,3.4,0,6.7,0,10.1h0Z"/>
  <path class="cls-3" d="M269.6,204.3c0,7.5,0,7.3-7.5,7.4-2.8,0-4.3-.6-3.8-3.7.2-1.1,0-2.2,0-3.4,0-8.1,0-8,8-8s3.5,1,3.3,3.5c-.1,1.4,0,2.7,0,4.1h0Z"/>
  <path class="cls-10" d="M128.8,118.9c0-3.2.1-6.5,0-9.7-.1-2.4.9-2.9,3-2.9s3.4.3,3.4,3c-.2,6.6-.2,13.2,0,19.7,0,2.7-1.4,2.6-3.3,2.6s-3.3-.1-3.1-2.7c.2-3.3,0-6.7,0-10h0Z"/>
  <path class="cls-3" d="M371.4,119.2v10.1c0,2.6-1.6,2.3-3.2,2.3s-2.9,0-2.9-2.3v-20.6c0-2.4,1.2-2.6,3.1-2.6s3.2,0,3.1,2.5c-.1,3.5,0,7,0,10.5h-.1Z"/>
  <path class="cls-3" d="M152.1,83.1v15.6c-2.3,1.4-4.9.6-7.3.7-1.3,0-1.7-.8-1.7-1.9v-12.3c0-1.6.7-2.2,2.3-2.2h6.7Z"/>
  <path class="cls-3" d="M121.4,397.2v11.9c-9.2.3-9.1.3-9-8.8,0-2.3.6-3.5,3.1-3.3,2,.2,4,0,6,.1h0Z"/>
</svg>