<?xml version="1.0" encoding="UTF-8"?>
<svg id="Layer_1" data-name="Layer 1" xmlns="http://www.w3.org/2000/svg" version="1.1" viewBox="0 0 512 512">
  <defs>
    <style>
      .cls-1 {
        fill: #adbdcb;
      }

      .cls-1, .cls-2, .cls-3, .cls-4, .cls-5, .cls-6, .cls-7, .cls-8, .cls-9, .cls-10, .cls-11 {
        stroke-width: 0px;
      }

      .cls-2 {
        fill: #000;
      }

      .cls-3 {
        fill: #8fa3ad;
      }

      .cls-4 {
        fill: #6f8595;
      }

      .cls-5 {
        fill: #a1afb9;
      }

      .cls-6 {
        fill: #8a9eaa;
      }

      .cls-7 {
        fill: #4f6b79;
      }

      .cls-8 {
        fill: #c8d6e1;
      }

      .cls-9 {
        fill: #a9a7ae;
      }

      .cls-10 {
        fill: #afc2ca;
      }

      .cls-11 {
        fill: #a4b5c4;
      }
    </style>
  </defs>
  <path class="cls-2" d="M203.9,294.6c-2,2.1-2.9,4.2-2.9,7.2-.9,43.1-.9,80.4,0,124.9,0,1.3,0,7.5-.5,6.9h-89.6c-5.8,0-6.5-.6-6.5-6.4v-118.2h0v-118.3c.2-5.3.6-5.4,4.4-6.4,2.1-.4,1.4-1.7,1.4-2.8v-27.3c0-5,.9-6,5.9-5.8,3.1.2,4-.8,3.9-3.9-.2-7.8,0-15.7,0-23.6s1.1-5.2,5.3-5.3c5.9,0,8.9-3.1,8.9-8.9v-10.1c0-3.1,1.5-4.6,4.6-4.5h6.7c2,0,2.6-.6,2.6-2.5-.1-5.4,0-10.7,0-16.1s1.1-7,3.9-6.7c4.5.4,3.6,4,3.6,6.9,0,5.2.1,10.5,0,15.7,0,2.1.5,3,2.7,2.8,2.1-.2,4.2,0,6.4,0,3.5-.2,5,1.4,5,4.9v16.1c0,1.9.5,2.7,2.5,2.6h6.4c4.3,0,5.4,1.1,5.4,5.3v24.3c0,2.4.6,3.2,3.1,3.1,6.2-.1,6.7.6,6.7,6.9v26.2c0,2,.3,2.9,2.6,2.8,3-.2,4.2,1.6,4.2,4.5v14.6c0,2.1.6,2.7,2.7,2.7h120.5c2.3,0,2.7-.8,2.6-2.8-.1-4.6,0-9.2,0-13.8s1.1-5.4,4.7-5.1c2.5.2,2.1-1.4,2.1-2.9v-26.9c0-5.2.9-6.2,6-6.1,2.8,0,3.8-.5,3.8-3.6-.2-8-.1-16,0-23.9,0-4,1.1-5.1,5.1-5.2h1.5c5.1,0,7.6-2.5,7.6-7.5v-11.2c0-3.2,1.3-4.8,4.7-4.8s6.8,1.3,8.7-.5c2-2,.6-5.9.7-9,.1-3.9,0-7.7,0-11.6s1-4.2,3.7-4.2,3.7,1.8,3.8,4.2c0,5.7.3,11.5,0,17.2-.2,3.5,1,4.4,4.2,4,1.7-.2,3.5,0,5.2,0,3.1,0,4.6,1.4,4.5,4.5,0,5.4.1,10.7,0,16.1,0,2.4.8,3.1,3,2.9,2.1-.2,4.2,0,6.4,0,3.4,0,5,1.5,4.9,5-.1,8.1.1,16.2,0,24.3,0,3.7-.2,3.1,3.2,3.2,6.1-.2,6.6.7,6.6,6.8v26.2c0,2,.1,3.3,2.7,3.1,2.8-.2,4.1,1.5,4.1,4.2v237.9c0,6.6-.4,7-7,7h-83.4c-5.5,0-6.3-.8-6.3-6.2v-126.1c0-2.6-.7-4.4-2.5-6.2-18.3-18.9-36.4-38-54.6-57-2.9-3-9.4-3-12.3,0M161.1,100.4l-10.4-.6h-6.7c-1.5,0-2.3.5-2.3,2.2v12.3c0,1.1.4,2,1.7,1.9,2.4,0,5,.7,7.3-.7h0c2.2,0,4.5-.2,6.7,0,4,.6,5-1.2,4.6-4.8M120,414c-2,0-4,0-6-.1-2.5-.2-3.1.9-3.1,3.3,0,9.1-.2,9.1,9,8.8h64.6c8.1,0,7.9,0,8.1-8,0-3-.7-4.1-3.9-4.1-22.9.1-45.8,0-68.7,0h0ZM387,399.1v-202.6l6.9,209.5c3.4.1,4.4-.9,4.4-4.4-.1-34.1,0-68.3,0-102.4h.1v-100.9c0-6.5,0-6.2-6.6-6.5M373.2,191.8c-5.4,0-4.7-.5-4.7,4.9v202.6M183.6,298.4v104.3c0,1-.5,2.6.8,3,2.4.6,5.1.8,7.4,0,1.7-.7.8-2.9.8-4.4v-207.5c0-.6-.3-1.6-.6-1.6-2.5-.2-5-.5-7.4,0-1.8.4-.9,2.6-.9,3.9v102.4h-.1ZM277.2,236c16.5,17.2,32.3,33.7,48.6,50.7v-48.7c0-1.8-.7-2-2.2-2h-46.5.1ZM200.1,286.6c16.2-17.1,31.8-33.6,47.7-50.3-.8-.2-1.1-.3-1.4-.3h-43.7c-2.4,0-2.5,1-2.5,2.9v47.9-.2h-.1ZM337.4,426.1c23.1-.1,46.1,0,69.2,0M333.2,422l81.7-4.4c0-2.9-.9-3.6-3.7-3.5-12.3.1-24.7,0-37,0h.1c-11-.1-21.9-.1-32.9-.1M185.9,170.1c0-3.8-.1-7.7,0-11.5.2-4.1-2.8-2.4-4.6-2.6-2-.3-3.9-.5-3.8,2.8.6,6.8.2,13.3,0,20.1s0,5.7,5.9,5.5c2.1,0,2.4-.9,2.4-2.7v-11.5h.1ZM358.1,184.2c1.7,0,4.3,1.2,4.2-2.3v-23.8M358.3,155.9c-1.6,0-4-1.2-4,2.1v23.8M139.6,170.3c0-3.8-.2-7.7,0-11.5.2-3.2-1.8-2.9-3.8-2.8-1.8,0-4-.8-3.9,2.7.2,7.7.2,15.4,0,23.1,0,3.4,2.1,2.6,3.9,2.7,2,0,4,.4,3.8-2.9-.2-3.7,0-7.4,0-11.2h0ZM170.1,170.1c0-3.9-.2-7.7,0-11.6.2-3.1-1.8-2.7-3.7-2.6-1.8,0-4.1-.9-4,2.6.2,7.7.2,15.5,0,23.2,0,3.5,2.3,2.5,4.1,2.6,1.8,0,3.8.5,3.6-2.6-.2-3.9,0-7.7,0-11.6h0ZM124.5,170.4v-12.3c0-2.8-1.8-2.2-3.2-2.1-1.5,0-3.7-1-3.6,2.1v23.9c0,3,1.8,2.3,3.5,2.3s3.6.7,3.4-2.3c-.2-3.9,0-7.7,0-11.6h-.1ZM176.1,146.2v-10.1h0c0-3.5-.1-7,0-10.4.1-2.7-1.5-2.6-3.4-2.6s-3.5-.3-3.4,2.5c.1,6.8.1,13.7,0,20.5,0,2.5,1.5,2.5,3.2,2.4M398.4,146.2v-10.1h0v-10.8c0-2.6-1.8-2.2-3.4-2.2s-3.4-.6-3.4,2.1v20.9c0,2.5,1.5,2.4,3.2,2.4M127.4,135.7c0,3.3.2,6.7,0,10-.2,2.6,1.2,2.8,3.1,2.7,1.9,0,3.3,0,3.3-2.6-.2-6.6-.2-13.2,0-19.7,0-2.7-1.2-3-3.4-3s-3.2.5-3,2.9c.2,3.2,0,6.4,0,9.7h0Z"/>
  <path class="cls-4" d="M398.3,299.2v102.4c0,3.5-.9,4.5-4.4,4.4-6.9-.2-6.9,0-6.9-6.9v-202.6c0-3.8,1-4.9,4.8-4.7,6.5.3,6.6,0,6.6,6.5v100.9h-.1Z"/>
  <path class="cls-3" d="M379.6,299.2v102.1c0,3.6-.6,5.1-4.6,4.8-6.7-.4-6.7,0-6.7-6.8v-202.6c0-5.4-.6-4.8,4.7-4.9,4.3,0,6.5,2.2,6.5,6.5v100.9h.1Z"/>
  <path class="cls-4" d="M360.9,298.8v102.4c0,3.7-.8,5-4.7,4.8-6.6-.3-6.6,0-6.6-6.9v-202.3c0-3.3,1.8-4.4,5-5,3.9-.7,6.4,1,6.3,6.4v100.6h0Z"/>
  <path class="cls-3" d="M157.3,299.2v102.1c0,3.6-.6,5.1-4.6,4.8-6.7-.4-6.7,0-6.7-6.8v-202.6c0-3.3,1.6-4.9,4.7-4.9s6.5,2.2,6.5,6.5v100.9h.1Z"/>
  <path class="cls-4" d="M127.4,298.7v-102.4c0-3.2.5-4.6,4.2-4.5,7.1.3,7.1,0,7.1,7.1v202.3c0,3.2-1.6,4.8-4.9,4.8-7.4,0-6.3,1-6.3-6.3v-100.9h-.1Z"/>
  <path class="cls-4" d="M164.8,298.5v-102.4c0-3.5.9-4.5,4.4-4.3,6.9.2,7,0,7,6.9v202.6c0,3.8-.9,4.9-4.7,4.7-6.6-.3-6.6,0-6.6-6.5v-100.9h0Z"/>
  <path class="cls-10" d="M110.9,298.8v-102.5c0-1.5-1-3.8.9-4.3,2.3-.6,4.9-.2,7.4,0,.6,0,.6,1,.6,1.6v207.9c0,1.5.9,3.7-.8,4.4-2.3.9-5,.6-7.4.1-1.3-.3-.8-1.9-.8-3v-104.3h.1Z"/>
  <path class="cls-3" d="M414.8,299.6v102.9c0,3-.6,4.4-3.9,4-2.7-.3-5.3.5-5.3-4,.1-69.1.1-138.1,0-207.2,0-4.2,2.4-3.4,4.8-3.4s4.4-.4,4.4,3.4c-.2,34.8,0,69.6,0,104.4h0Z"/>
  <path class="cls-3" d="M333.2,298.4v-102.4c0-1.3-.9-3.5,1-3.9,2.4-.6,4.9-.5,7.4,0,.3,0,.5,1,.6,1.6v207.5c0,1.5.9,3.8-.8,4.4-2.3.9-5,.7-7.4,0-1.3-.3-.8-1.9-.8-3v-104.4.2h0Z"/>
  <path class="cls-3" d="M183.5,298.4v-102.4c0-1.4-.9-3.5.9-3.9,2.4-.5,4.9-.1,7.4,0,.2,0,.5,1,.6,1.6.1.9,0,1.7.1,2.6v204.9c0,1.5,1.1,4-.8,4.5-2.2.9-5.1.7-7.5,0-1.3-.3-.8-2-.8-3.1v-104.3h.1Z"/>
  <path class="cls-7" d="M374.3,413.9h37c2.7.1,3.7.8,3.7,3.6,0,5.7-2.8,8.5-8.3,8.6h-69.2c-3.3,0-4.6-.9-4.2-4.2.2-8,0-8,8.2-8h32.9-.1Z"/>
  <path class="cls-7" d="M120,413.9h68.7c3.2.1,3.9,1.2,3.9,4.2-.1,8,0,8-8.1,8h-64.6v-12.1h.1Z"/>
  <path class="cls-9" d="M300.6,228.5h-22.1c-2.3,0-3.1-.7-2.9-3,.2-3.1.1-6.2,0-9.3,0-1.9.5-2.6,2.5-2.6h45.2c1.8,0,2.4.7,2.3,2.4,0,3.4-.1,6.7,0,10.1,0,2.1-.9,2.5-2.7,2.4h-22.4.1Z"/>
  <path class="cls-9" d="M224.5,228.5h-21.3c-2.3,0-3.4-.5-3.2-3.1.2-3.1.1-6.2,0-9.3,0-2,.7-2.6,2.6-2.6h44.1c1.8,0,2.8.4,2.7,2.5-.3,4,1.5,8.9-.7,11.6-2,2.5-7,.7-10.7.8-4.4.3-8.6.2-13.5,0h0Z"/>
  <path class="cls-7" d="M373.2,115.5c-2.6-.3-6.4.5-8.5-1.5-2.3-2.2-1-5.5-1.1-8.8-.1-6-.7-5.4,5.3-5.5h12.3c1.9,0,2.7.7,2.6,2.6,0,3.5-.1,7,0,10.4,0,2.2-.9,2.8-2.9,2.7h-7.7,0Z"/>
  <path class="cls-11" d="M369.3,170.2c0-3.8.2-7.7,0-11.5-.2-3.1,1.7-2.9,3.6-2.7,1.7.2,4.5-1.4,4.5,2.4,0,7.8-.1,15.6,0,23.5,0,3.5-2.4,2.4-4.1,2.5-1.8,0-4.1.8-4-2.6.2-3.8,0-7.7,0-11.5h0Z"/>
  <path class="cls-1" d="M185.8,170.1v11.5c0,1.8-.3,2.9-2.5,2.8-6.3.7-6.2.6-5.8-5.6.4-5.6.2-13.3,0-20.1-.1-3.3,1.8-3,3.8-2.8,1.8.2,4.8-1.5,4.6,2.6-.2,3.8,0,7.7,0,11.5h-.1Z"/>
  <path class="cls-1" d="M408.1,170.2c0,3.7-.1,7.5,0,11.2,0,2.2-.5,3.1-2.9,3-6.7-.2-5.3.5-5.4-5.3,0-6.7.2-13.5,0-20.2-.2-4,2.4-2.8,4.4-2.9,2.1-.1,4.3-.5,4,3-.3,3.7,0,7.5,0,11.2h-.1Z"/>
  <path class="cls-5" d="M384.7,169.9c0-3.8.1-7.7,0-11.5-.1-3.3,2.2-2.4,3.8-2.3,1.6,0,3.9-.9,3.8,2.3-.1,7.9-.1,15.9,0,23.8,0,3-2.1,2.2-3.6,2.2s-4,1.2-4-2.1v-12.3h0Z"/>
  <path class="cls-5" d="M139.5,170.3c0,3.7-.2,7.5,0,11.2.2,3.2-1.7,2.9-3.8,2.9s-4,.7-3.9-2.7c.2-7.7.2-15.4,0-23.1,0-3.4,2.1-2.6,3.9-2.7,2,0,4-.4,3.8,2.8-.2,3.8,0,7.7,0,11.5h0Z"/>
  <path class="cls-5" d="M170,170.1c0,3.9-.2,7.7,0,11.6.2,3.1-1.8,2.7-3.6,2.6-1.8,0-4.1.9-4.1-2.6.2-7.7.2-15.5,0-23.2,0-3.5,2.3-2.5,4-2.6,1.8,0,3.8-.6,3.7,2.6-.2,3.9,0,7.7,0,11.6h0Z"/>
  <path class="cls-8" d="M124.4,170.4v11.6c0,3-1.8,2.3-3.4,2.3s-3.5.6-3.5-2.3v-23.9c0-3.1,2.2-2,3.6-2.1,1.5,0,3.4-.7,3.2,2.1-.2,4.1,0,8.2,0,12.3h.1Z"/>
  <path class="cls-1" d="M346.7,169.8c0,4-.2,8,0,11.9.2,3.1-1.9,2.5-3.6,2.6-1.8,0-3.3.2-3.3-2.6.2-7.8.2-15.7,0-23.5,0-2.9,1.8-2.4,3.4-2.4s3.6-.6,3.5,2.3c-.2,3.8,0,7.7,0,11.5v.2Z"/>
  <path class="cls-7" d="M150.6,99.8c3.7-.2,8.1-1.4,10.4.7,2.4,2.2.7,6.6.9,10.3.5,3.6-.6,5.4-4.6,4.8-2.2-.3-4.5,0-6.7,0v-15.6h0v-.2h0Z"/>
  <path class="cls-4" d="M176,136.1v10.1c0,3-2,2.2-3.6,2.3-1.7.1-3.2.2-3.2-2.4.1-6.8.1-13.7,0-20.5,0-2.8,1.7-2.5,3.4-2.5s3.5,0,3.4,2.6c-.2,3.5,0,7,0,10.4h0Z"/>
  <path class="cls-6" d="M161.8,135.7c0,3.5-.1,7,0,10.4.1,2.6-1.6,2.3-3.2,2.3s-3.6.6-3.6-2.3c.1-7-.4-13.9,0-20.9.2-3.1,1.5-1.8,3.4-2.1s3.4,0,3.4,2.1v10.4h0Z"/>
  <path class="cls-4" d="M398.3,136.1v10.1c0,2.9-2,2.2-3.6,2.3-1.7,0-3.2.2-3.2-2.4v-20.9c0-2.7,1.9-2.1,3.4-2.1s3.4-.5,3.4,2.2v10.8h0Z"/>
  <path class="cls-6" d="M356.2,136.2v9.6c.2,2.7-1.4,2.8-3.3,2.7-1.7,0-3.5.4-3.5-2.4.1-6.8.1-13.7,0-20.5,0-2.5,1.5-2.4,3.2-2.4s3.6,0,3.5,2.5v10.5h0Z"/>
  <path class="cls-4" d="M147.6,136v10.1c0,2.5-1.4,2.5-3.1,2.4-1.6,0-3.6.6-3.6-2.3v-20.1c0-2.7,1.6-2.9,3.6-2.9s3.2.4,3.1,2.9c-.2,3.3,0,6.7,0,10.1v-.2Z"/>
  <path class="cls-6" d="M384.1,136c0,3.4-.1,6.7,0,10.1.1,2.5-1.4,2.5-3.1,2.4-1.6-.1-3.7.7-3.6-2.3v-20.5c0-3,2.1-2.4,3.9-2.5,2.1-.2,2.9.6,2.8,2.8-.1,3.4,0,6.7,0,10.1h0Z"/>
  <path class="cls-4" d="M268.1,216.9c-.2-1.1.2-1.2-.1-1.9-.2-.5-.3-1.2-3.2-1.6-8-1.1-8-.1-8,8s.2,2.3,0,3.4c-.5,3.1,1,3.7,3.8,3.7,7.5,0,7.5,0,7.5-7.4h0c0-1.5-.1-2.8,0-4.2Z"/>
  <path class="cls-10" d="M127.3,135.7v-9.7c0-2.4.9-2.9,3-2.9s3.4.3,3.4,3c-.2,6.6-.2,13.2,0,19.7,0,2.7-1.4,2.6-3.3,2.6s-3.3-.1-3.1-2.7c.2-3.3,0-6.7,0-10h0Z"/>
  <path class="cls-4" d="M370,136v10.1c-.1,2.6-1.7,2.3-3.3,2.3s-2.9,0-2.9-2.3v-20.6c0-2.4,1.2-2.6,3.1-2.6s3.2,0,3.1,2.5c-.1,3.5,0,7,0,10.5h0Z"/>
  <path class="cls-4" d="M150.6,99.9v15.6c-2.3,1.4-4.9.7-7.3.7s-1.7-.7-1.7-1.9v-12.3c0-1.6.7-2.2,2.3-2.2h6.7Z"/>
  <path class="cls-4" d="M119.9,426c-9.5.3-9.3,1.2-9-8.9,0-2,.6-3.5,3.2-3.3,2,.2,4,0,6,.1h0"/>
  <path class="cls-5" d="M154.8,170.2c0,3.9-.2,7.7,0,11.6.2,3.1-1.8,2.7-3.6,2.6-1.8,0-4.1.9-4.1-2.6.2-7.7.2-15.5,0-23.2,0-3.5,2.3-2.5,4-2.6,1.8,0,3.8-.6,3.7,2.6-.2,3.9,0,7.7,0,11.6h0Z"/>
  <path class="cls-11" d="M354.2,170.1c0-3.8.2-7.7,0-11.5-.2-3.1,1.3-3.2,3.2-3,1.7.2,5-1.1,5,2.7,0,7.8-.1,15.6,0,23.5,0,3.5-2.4,2.4-4.1,2.5-1.8,0-4.1.8-4-2.6.2-3.8,0-7.7,0-11.5h-.1Z"/>
</svg>