<?xml version="1.0" encoding="UTF-8"?>
<svg id="Layer_1" data-name="Layer 1" xmlns="http://www.w3.org/2000/svg" version="1.1" viewBox="0 0 512 512">
  <defs>
    <style>
      .cls-1 {
        fill: #000;
      }

      .cls-1, .cls-2, .cls-3, .cls-4, .cls-5, .cls-6 {
        stroke-width: 0px;
      }

      .cls-2 {
        fill: #8fa3ad;
      }

      .cls-3 {
        fill: #6f8595;
      }

      .cls-4 {
        fill: #4f6b79;
      }

      .cls-5 {
        fill: #afc2ca;
      }

      .cls-6 {
        fill: #fefefe;
      }
    </style>
  </defs>
  <path class="cls-6" d="M101.9,293.7c0,39.4,0,78.8,0,118.2,0,5.7.6,6.4,6.5,6.4,27.8,0,55.6,0,83.4,0,6.2,0,6.7-.6,6.7-6.9,0-41.6,0-83.3,0-124.9,0-3,.9-5.1,2.9-7.2,17.9-18.8,35.7-37.6,53.6-56.4,2.8-3,9.4-3,12.3,0,18.2,19,36.4,38,54.6,57,1.8,1.9,2.5,3.7,2.5,6.2,0,42,0,84,0,126.1,0,5.5.8,6.2,6.3,6.2,27.8,0,55.6,0,83.4,0,6.5,0,7-.4,7-7,0-78.4,0-156.9,0-235.3,0-.9,0-1.7,0-2.6,0-2.7-1.3-4.4-4.1-4.2-2.6.2-2.8-1.1-2.7-3.1,0-8.7,0-17.5,0-26.2,0-6.1-.5-6.8-6.6-6.6-2.8,0-3.2-1-3.2-3.4.1-8.1,0-16.2,0-24.3,0-3.5-1.5-5.1-4.9-5-2.1,0-4.2-.1-6.4,0-2.2.2-3.1-.6-3-2.9.2-5.4,0-10.7,0-16.1,0-3.1-1.4-4.6-4.5-4.5-1.7,0-3.5-.2-5.2,0-3.2.4-4.4-.5-4.2-4,.3-5.7.1-11.5,0-17.2,0-2.4-1.1-4.2-3.8-4.2-2.6,0-3.7,1.7-3.7,4.2,0,3.9,0,7.7,0,11.6-.1,3.1,1.4,7-.7,9-1.8,1.8-5.7.5-8.7.5-3.4,0-4.7,1.6-4.7,4.8,0,3.7,0,7.5,0,11.2q0,7.5-7.6,7.5c-.5,0-1,0-1.5,0-4,.1-5.1,1.2-5.1,5.2,0,8-.2,16,0,23.9,0,3.1-1,3.7-3.8,3.6-5.1-.2-6,.9-6,6.1,0,9,0,18,0,26.9,0,1.4.4,3.1-2.1,2.9-3.6-.3-4.8,1.8-4.7,5.1,0,4.6,0,9.2,0,13.8,0,2-.3,2.8-2.6,2.8-40.2,0-80.3,0-120.5,0-2.1,0-2.8-.6-2.7-2.7.1-4.9,0-9.7,0-14.6,0-2.8-1.2-4.6-4.2-4.5-2.3.1-2.6-.8-2.6-2.8,0-8.7,0-17.5,0-26.2,0-6.3-.5-7-6.7-6.9-2.5,0-3.1-.7-3.1-3.1.1-8.1,0-16.2,0-24.3,0-4.2-1.1-5.2-5.4-5.3-2.1,0-4.2-.1-6.4,0-2,.1-2.6-.6-2.5-2.6.1-5.4,0-10.7,0-16.1,0-3.5-1.5-5.1-5-4.9-2.1,0-4.3-.1-6.4,0-2.2.2-2.8-.7-2.7-2.8.1-5.2,0-10.5,0-15.7,0-2.8.9-6.5-3.6-6.9-2.8-.3-3.9,1.7-3.9,6.7,0,5.4,0,10.7,0,16.1,0,2-.6,2.7-2.6,2.5-2.2-.1-4.5,0-6.7,0-3.1,0-4.6,1.3-4.6,4.5,0,3.4,0,6.7,0,10.1q0,8.7-8.9,8.9c-4.3,0-5.3,1.1-5.3,5.3,0,7.9-.2,15.7,0,23.6,0,3.1-.7,4-3.9,3.9-5-.2-5.9.8-5.9,5.8,0,9.1,0,18.2,0,27.3,0,1.1.6,2.4-1.4,2.8-5.3.9-5.3,1-5.3,6.4,0,39.4,0,78.8,0,118.2Z"/>
  <path class="cls-1" d="M101.9,293.7c0-39.4,0-78.8,0-118.2,0-5.3,0-5.4,5.3-6.4,2.1-.4,1.4-1.7,1.4-2.8,0-9.1,0-18.2,0-27.3,0-5,.9-6,5.9-5.8,3.1.2,4-.8,3.9-3.9-.2-7.8-.1-15.7,0-23.6,0-4.2,1.1-5.2,5.3-5.3q8.9-.2,8.9-8.9c0-3.4,0-6.7,0-10.1,0-3.1,1.5-4.6,4.6-4.5,2.2,0,4.5-.1,6.7,0,2,.1,2.6-.6,2.6-2.5-.1-5.4,0-10.7,0-16.1,0-5,1.1-7,3.9-6.7,4.5.4,3.6,4,3.6,6.9,0,5.2.1,10.5,0,15.7,0,2.1.5,3,2.7,2.8,2.1-.2,4.2,0,6.4,0,3.5-.2,5,1.4,5,4.9,0,5.4,0,10.7,0,16.1,0,1.9.5,2.7,2.5,2.6,2.1-.1,4.2,0,6.4,0,4.3,0,5.4,1.1,5.4,5.3,0,8.1,0,16.2,0,24.3,0,2.4.6,3.2,3.1,3.1,6.2-.1,6.7.6,6.7,6.9,0,8.7,0,17.5,0,26.2,0,2,.3,2.9,2.6,2.8,3-.2,4.2,1.6,4.2,4.5,0,4.9,0,9.7,0,14.6,0,2.1.6,2.7,2.7,2.7,40.2,0,80.3,0,120.5,0,2.3,0,2.7-.8,2.6-2.8-.1-4.6,0-9.2,0-13.8,0-3.3,1.1-5.4,4.7-5.1,2.5.2,2.1-1.4,2.1-2.9,0-9,0-18,0-26.9,0-5.2.9-6.2,6-6.1,2.8,0,3.8-.5,3.8-3.6-.2-8-.1-16,0-23.9,0-4,1.1-5.1,5.1-5.2.5,0,1,0,1.5,0q7.6,0,7.6-7.5c0-3.7,0-7.5,0-11.2,0-3.2,1.3-4.8,4.7-4.8,3,0,6.8,1.3,8.7-.5,2-2,.6-5.9.7-9,.1-3.9,0-7.7,0-11.6,0-2.5,1-4.2,3.7-4.2,2.7,0,3.7,1.8,3.8,4.2,0,5.7.3,11.5,0,17.2-.2,3.5,1,4.4,4.2,4,1.7-.2,3.5,0,5.2,0,3.1,0,4.6,1.4,4.5,4.5,0,5.4.1,10.7,0,16.1,0,2.4.8,3.1,3,2.9,2.1-.2,4.2,0,6.4,0,3.4,0,5,1.5,4.9,5-.1,8.1,0,16.2,0,24.3,0,2.5.4,3.5,3.2,3.4,6.1-.2,6.6.5,6.6,6.6,0,8.7,0,17.5,0,26.2,0,2,.1,3.3,2.7,3.1,2.8-.2,4.1,1.5,4.1,4.2,0,.9,0,1.7,0,2.6,0,78.4,0,156.9,0,235.3,0,6.6-.4,7-7,7-27.8,0-55.6,0-83.4,0-5.5,0-6.3-.8-6.3-6.2,0-42,0-84,0-126.1,0-2.6-.7-4.4-2.5-6.2-18.3-18.9-36.4-38-54.6-57-2.9-3-9.4-3-12.3,0-17.8,18.8-35.6,37.7-53.6,56.4-2,2.1-2.9,4.2-2.9,7.2.1,41.6,0,83.3,0,124.9,0,6.3-.5,6.9-6.7,6.9-27.8,0-55.6,0-83.4,0-5.8,0-6.5-.6-6.5-6.4,0-39.4,0-78.8,0-118.2ZM149.1,100.3c2.2,0,4.5-.2,6.7.1,4,.6,5-1.2,4.6-4.8-.4-3.5,1.6-8.1-.9-10.3-2.3-2.1-6.9-.5-10.4-.6-2.2,0-4.5,0-6.7,0-1.5,0-2.3.5-2.3,2.2,0,4.1,0,8.2,0,12.3,0,1.1.4,2,1.7,1.9,2.4-.1,5,.7,7.3-.7ZM118.4,398.8c-2,0-4,0-6-.1-2.5-.2-3.1.9-3.1,3.3-.1,9.1-.2,9.1,9,8.8,21.5,0,43.1,0,64.6,0,8.1,0,7.9,0,8.1-8,0-3.5-1.2-4.1-4.3-4.1-22.8.1-45.6,0-68.4,0ZM396.8,284c0-33.6,0-67.3,0-100.9,0-6.5,0-6.2-6.6-6.5-3.8-.2-4.8.9-4.8,4.7.1,67.5,0,135.1,0,202.6s0,6.7,6.9,6.9c3.4.1,4.4-.9,4.4-4.4-.1-34.1,0-68.3,0-102.4ZM378.1,284c0-33.6,0-67.3,0-100.9s0-6.5-6.5-6.5c-5.4,0-4.7-.5-4.7,4.9,0,67.5,0,135.1,0,202.6s0,6.4,6.7,6.8c4,.2,4.6-1.2,4.6-4.8-.1-34,0-68,0-102.1ZM359.4,283.6c0-33.5,0-67,0-100.6q0-6.4-6.3-6.4t-5,5c0,67.4,0,134.8,0,202.3s0,6.5,6.6,6.9c3.9.2,4.7-1.1,4.7-4.8-.1-34.1,0-68.3,0-102.4ZM155.8,284c0-33.6,0-67.3,0-100.9q0-6.5-6.5-6.5-4.7,0-4.7,4.9c0,67.5,0,135.1,0,202.6,0,6.7,0,6.4,6.7,6.8,4,.2,4.6-1.2,4.6-4.8-.1-34,0-68,0-102.1ZM125.9,283.5c0,33.6,0,67.3,0,100.9,0,7.3-1,6.2,6.3,6.3,4.9,0,4.9,0,4.9-4.8,0-67.4,0-134.8,0-202.3,0-7.1,0-6.8-7.1-7.1-3.7-.2-4.2,1.3-4.2,4.5,0,34.1,0,68.3,0,102.4ZM163.3,283.3c0,33.6,0,67.3,0,100.9,0,6.5,0,6.2,6.6,6.5,3.8.2,4.7-1,4.7-4.7-.1-67.5,0-135.1,0-202.6s0-6.6-7-6.9c-3.4-.1-4.4.9-4.4,4.3.1,34.1,0,68.3,0,102.4ZM109.4,283.6c0,23.9,0,47.9,0,71.8,0,10.8,0,21.7,0,32.5,0,1.1-.5,2.7.8,3,2.4.5,5.1.8,7.4-.1,1.7-.7.8-2.9.8-4.4,0-68.4,0-136.9,0-205.3,0-.9,0-1.7,0-2.6,0-.6,0-1.6-.6-1.6-2.5-.2-5.1-.6-7.4,0-1.9.5-.9,2.8-.9,4.3,0,34.2,0,68.3,0,102.5ZM413.3,284.4c0-34.8,0-69.6,0-104.4,0-3.8-2-3.5-4.4-3.4-2.4,0-4.8-.8-4.8,3.4.1,69.1.1,138.1,0,207.2,0,4.5,2.6,3.7,5.3,4,3.2.3,3.9-1,3.9-4,0-34.3,0-68.6,0-102.9ZM331.7,283.2c0,25.1,0,50.1,0,75.2,0,9.7,0,19.4,0,29.2,0,1.1-.5,2.7.8,3,2.4.6,5.1.8,7.4,0,1.7-.6.8-2.9.8-4.4,0-68.3,0-136.6,0-204.9,0-.9,0-1.8,0-2.6,0-.6-.3-1.5-.6-1.6-2.4-.6-5-.7-7.4,0-1.8.5-1,2.6-1,3.9,0,34.1,0,68.3,0,102.4ZM182,283.2c0,27.3,0,54.6,0,81.9,0,7.5,0,15,0,22.4,0,1-.5,2.6.8,3,2.4.6,5.1.8,7.4,0,1.7-.7.8-2.9.8-4.4,0-68.3,0-136.6,0-204.9,0-.9,0-1.8,0-2.6,0-.6-.3-1.6-.6-1.6-2.5-.2-5-.5-7.4,0-1.8.4-.9,2.6-.9,3.9,0,34.1,0,68.3,0,102.4ZM275.6,220.8c16.5,17.2,32.3,33.7,48.6,50.7,0-16.9,0-32.8,0-48.7,0-1.8-.7-2-2.2-2-3.9,0-7.7,0-11.6,0-11.3,0-22.6,0-34.8,0ZM198.5,271.4c16.2-17.1,31.8-33.6,47.6-50.3-.8-.2-1.1-.3-1.4-.3-14.6,0-29.2,0-43.7,0-2.4,0-2.5,1-2.5,2.9,0,9.3,0,18.7,0,28,0,6.3,0,12.6,0,19.8ZM372.6,398.8c-11,0-21.9,0-32.9,0s-7.9,0-8.2,8c0,3.4,1,4.1,4.2,4.1,23.1-.1,46.1,0,69.2,0s8.3,0,8.3-8.5c0-2.9-.9-3.6-3.7-3.5-12.3.1-24.7,0-37,0ZM299,213.3c7.5,0,14.9,0,22.4,0,2,0,3-.4,2.9-2.7-.2-3.2-.1-6.5,0-9.7,0-1.9-.5-2.7-2.5-2.7-15.1,0-30.1,0-45.2,0-2,0-2.6.8-2.5,2.7,0,2.9.2,5.7,0,8.6-.2,2.9.6,3.9,3.7,3.8,7.1-.2,14.2,0,21.3,0ZM223.5,198.3c-6.8,0-13.7.3-20.5-.1-4-.2-5,1.2-4.6,4.8.3,2.1.2,4.2,0,6.3-.3,3,.6,4.1,3.8,4,11.3-.2,22.7,0,34-.1,3.7,0,8.6,1.6,10.8-.6,2.4-2.4.4-7.3.8-11.1.3-2.8-1-3.3-3.5-3.2-7,.1-13.9,0-20.9,0ZM372,100.3c2.9,0,5.3,0,7.7,0,2,0,3-.5,2.9-2.7-.1-3.5,0-7,0-10.4,0-1.9-.7-2.7-2.6-2.6-4.1,0-8.2,0-12.3,0-6,0-5.4-.6-5.3,5.5,0,3.3-1.5,7.5.8,9.7,2.1,2,6.2.3,8.8.6ZM367.9,154.9c0,3.9.2,7.7,0,11.6-.2,3.5,2.2,2.6,4,2.6,1.8,0,4,.8,4-2.6-.2-7.7-.2-15.4,0-23.1,0-3.5-2.2-2.6-4-2.6-1.8,0-4.2-.8-4,2.6.2,3.8,0,7.7,0,11.6ZM153.4,154.9c0-3.9-.2-7.7,0-11.6.2-3.5-2.2-2.6-4-2.6-1.8,0-4.1-.9-4,2.6.2,7.7.2,15.4,0,23.1,0,3.5,2.2,2.6,4,2.6,1.8,0,4.2.9,4-2.6-.2-3.8,0-7.7,0-11.6ZM184.3,155c0-3.7-.2-7.5,0-11.2.3-3.5-1.8-3.1-3.9-3-2,.1-4.6-1.1-4.4,2.9.3,6.7,0,13.5,0,20.2,0,5.8-1.2,5.1,5.4,5.3,2.4,0,3-.7,2.9-3-.2-3.7,0-7.5,0-11.2ZM406.6,154.9c0-3.7-.2-7.5,0-11.2.3-3.5-1.9-3.1-4-3-2,.1-4.6-1-4.4,2.9.3,6.7,0,13.5,0,20.2,0,5.8-1.3,5.1,5.4,5.3,2.4,0,3-.8,2.9-3-.2-3.7,0-7.5,0-11.2ZM360.7,155.2c0-4.1,0-8.2,0-12.3,0-3.3-2.5-2.2-4-2.1-1.6,0-4-1.2-4,2.1,0,8,0,15.9,0,23.9,0,3.2,2.2,2.4,3.9,2.4,1.7,0,4.3,1.2,4.2-2.3,0-3.9,0-7.7,0-11.6ZM383.2,154.7c0,4.1,0,8.2,0,12.3,0,3.3,2.5,2,4.1,2.1,1.5,0,3.7.8,3.6-2.2,0-8,0-15.9,0-23.9,0-3.3-2.3-2.3-3.9-2.3-1.7,0-4-.9-3.8,2.4.1,3.9,0,7.7,0,11.6ZM138,155.1c0-4-.1-8,0-11.9.1-2.8-1.7-2.7-3.4-2.5-1.6.2-4.3-1.4-4.3,2.2,0,8,0,15.9,0,23.9,0,3.3,2.3,2.2,3.9,2.3,1.7,0,3.9.8,3.8-2.4-.1-3.9,0-7.7,0-11.6ZM168.6,155.2c0-4-.1-8,0-11.9.2-3.2-1.9-2.6-3.7-2.5-1.8,0-4.1-.9-4.1,2.6.1,7.8,0,15.7,0,23.5,0,3.5,2.6,2.2,4.3,2.3,1.7.2,3.6.5,3.5-2.4-.2-3.9,0-7.7,0-11.6ZM123,155.2c0-4-.2-8,0-11.9.2-2.7-1.3-2.8-3.2-2.6-1.6.2-3.9-.9-3.8,2.4.1,8,.1,15.9,0,23.9,0,3,2,2.2,3.6,2.2,1.7,0,3.6.6,3.4-2.4-.2-3.8,0-7.7,0-11.6ZM345.2,154.6c0-3.8-.1-7.7,0-11.5.1-2.9-1.8-2.3-3.5-2.3-1.6,0-3.5-.6-3.4,2.4.2,7.8.2,15.6,0,23.5,0,2.8,1.4,2.6,3.3,2.6,1.8,0,3.8.5,3.6-2.6-.2-4,0-7.9,0-11.9ZM174.5,120.9c0-3.5-.1-7,0-10.4.1-2.7-1.5-2.6-3.4-2.6-1.8,0-3.5-.3-3.4,2.5.1,6.8.1,13.7,0,20.5,0,2.5,1.5,2.5,3.2,2.4,1.6,0,3.7.7,3.6-2.3,0-3.4,0-6.7,0-10.1ZM160.3,120.5c0-3.5,0-6.9,0-10.4,0-2.7-1.8-2.1-3.3-2.1-1.5,0-3.4-.6-3.4,2.1,0,6.9,0,13.9,0,20.8,0,2.9,2,2.2,3.6,2.3,1.6,0,3.3.3,3.2-2.3-.1-3.5,0-6.9,0-10.4ZM396.8,120.9c0-3.6,0-7.2,0-10.8,0-2.6-1.8-2.2-3.4-2.2-1.5,0-3.4-.6-3.4,2.1,0,7,0,13.9,0,20.9,0,2.5,1.5,2.4,3.2,2.4,1.6,0,3.7.6,3.6-2.3,0-3.4,0-6.7,0-10.1ZM354.7,120.9c0-3.5,0-7,0-10.4,0-2.7-1.7-2.5-3.5-2.5-1.7,0-3.2-.1-3.1,2.4.1,6.8.1,13.7,0,20.5,0,2.9,1.8,2.3,3.5,2.4,1.9.1,3.4,0,3.3-2.7-.2-3.2,0-6.5,0-9.7ZM146.1,120.8c0-3.4-.1-6.7,0-10.1.1-2.4-1-2.9-3.1-2.9-2.1,0-3.7.2-3.6,2.9,0,6.7,0,13.4,0,20.1,0,2.9,1.9,2.3,3.6,2.3,1.7,0,3.2.1,3.1-2.4-.1-3.3,0-6.7,0-10.1ZM382.6,120.8c0-3.4,0-6.7,0-10.1,0-2.1-.7-3-2.8-2.8-1.8.2-3.9-.5-3.9,2.5,0,6.8,0,13.7,0,20.5,0,3,2,2.1,3.6,2.3,1.7.1,3.2,0,3.1-2.4-.2-3.3,0-6.7,0-10.1ZM266.6,205.9c0-1.4-.1-2.8,0-4.1.2-2.5-.5-3.5-3.3-3.5-8,0-8-.1-8,8,0,1.1.1,2.3,0,3.4-.5,3.1,1,3.7,3.8,3.7,7.5-.1,7.5,0,7.5-7.4ZM125.8,120.5c0,3.3.2,6.7,0,10-.2,2.6,1.2,2.8,3.1,2.7,1.9,0,3.3,0,3.3-2.6-.2-6.6-.2-13.2,0-19.7,0-2.7-1.2-3-3.4-3-2.2,0-3.2.5-3,2.9.2,3.2,0,6.4,0,9.7ZM368.4,120.8c0-3.5,0-7,0-10.5,0-2.4-1.3-2.5-3.1-2.5-1.8,0-3.1.2-3.1,2.6.1,6.9,0,13.7,0,20.6,0,2.2,1.3,2.3,2.9,2.3,1.6,0,3.3.2,3.2-2.3-.1-3.4,0-6.7,0-10.1Z"/>
  <path class="cls-3" d="M396.8,284c0,34.1,0,68.3,0,102.4,0,3.5-.9,4.5-4.4,4.4-6.9-.2-6.9,0-6.9-6.9,0-67.5,0-135.1,0-202.6,0-3.8,1-4.9,4.8-4.7,6.5.3,6.6,0,6.6,6.5,0,33.6,0,67.3,0,100.9Z"/>
  <path class="cls-2" d="M378.1,284c0,34,0,68,0,102.1,0,3.6-.6,5.1-4.6,4.8-6.7-.4-6.7,0-6.7-6.8,0-67.5,0-135.1,0-202.6,0-5.4-.6-4.8,4.7-4.9,6.5,0,6.5,0,6.5,6.5,0,33.6,0,67.3,0,100.9Z"/>
  <path class="cls-3" d="M359.4,283.6c0,34.1,0,68.3,0,102.4,0,3.7-.8,5-4.7,4.8-6.6-.3-6.6,0-6.6-6.9,0-67.4,0-134.8,0-202.3q0-5,5-5t6.3,6.4c0,33.5,0,67,0,100.6Z"/>
  <path class="cls-2" d="M155.8,284c0,34,0,68,0,102.1,0,3.6-.6,5.1-4.6,4.8-6.7-.4-6.7,0-6.7-6.8,0-67.5,0-135.1,0-202.6q0-4.9,4.7-4.9,6.5,0,6.5,6.5c0,33.6,0,67.3,0,100.9Z"/>
  <path class="cls-3" d="M125.9,283.5c0-34.1,0-68.3,0-102.4,0-3.2.5-4.6,4.2-4.5,7.1.3,7.1,0,7.1,7.1,0,67.4,0,134.8,0,202.3,0,4.8,0,4.8-4.9,4.8-7.4,0-6.3,1-6.3-6.3,0-33.6,0-67.3,0-100.9Z"/>
  <path class="cls-3" d="M163.3,283.3c0-34.1,0-68.3,0-102.4,0-3.5.9-4.5,4.4-4.3,6.9.2,7,0,7,6.9,0,67.5,0,135.1,0,202.6,0,3.8-.9,4.9-4.7,4.7-6.6-.3-6.6,0-6.6-6.5,0-33.6,0-67.3,0-100.9Z"/>
  <path class="cls-5" d="M109.4,283.6c0-34.2,0-68.3,0-102.5,0-1.5-1-3.8.9-4.3,2.3-.6,4.9-.2,7.4,0,.6,0,.6,1,.6,1.6,0,.9,0,1.7,0,2.6,0,68.4,0,136.9,0,205.3,0,1.5.9,3.7-.8,4.4-2.3.9-5,.6-7.4.1-1.3-.3-.8-1.9-.8-3,0-10.8,0-21.7,0-32.5,0-23.9,0-47.9,0-71.8Z"/>
  <path class="cls-2" d="M413.3,284.4c0,34.3,0,68.6,0,102.9,0,3-.6,4.4-3.9,4-2.7-.3-5.3.5-5.3-4,.1-69.1.1-138.1,0-207.2,0-4.2,2.4-3.4,4.8-3.4,2.4,0,4.4-.4,4.4,3.4-.2,34.8,0,69.6,0,104.4Z"/>
  <path class="cls-2" d="M331.7,283.2c0-34.1,0-68.3,0-102.4,0-1.3-.9-3.5,1-3.9,2.4-.6,4.9-.5,7.4,0,.3,0,.5,1,.6,1.6,0,.9,0,1.7,0,2.6,0,68.3,0,136.6,0,204.9,0,1.5.9,3.8-.8,4.4-2.3.9-5,.7-7.4,0-1.3-.3-.8-1.9-.8-3,0-9.7,0-19.4,0-29.2,0-25.1,0-50.1,0-75.2Z"/>
  <path class="cls-2" d="M182,283.2c0-34.1,0-68.3,0-102.4,0-1.4-.9-3.5.9-3.9,2.4-.5,4.9-.1,7.4,0,.2,0,.5,1,.6,1.6.1.9,0,1.7,0,2.6,0,68.3,0,136.6,0,204.9,0,1.5.9,3.8-.8,4.4-2.3.9-5,.7-7.4,0-1.3-.3-.8-1.9-.8-3,0-7.5,0-15,0-22.4,0-27.3,0-54.6,0-81.9Z"/>
  <path class="cls-6" d="M198.5,271.4c0-7.2,0-13.5,0-19.8,0-9.3,0-18.7,0-28,0-1.9.1-2.9,2.5-2.9,14.6.1,29.2,0,43.7,0,.3,0,.6.2,1.4.3-15.8,16.7-31.4,33.2-47.6,50.3Z"/>
  <path class="cls-4" d="M372.6,398.8c12.3,0,24.7,0,37,0,2.7,0,3.7.7,3.7,3.5,0,8.5,0,8.5-8.3,8.5-23.1,0-46.1,0-69.2,0-3.2,0-4.3-.7-4.2-4.1.2-8,0-8,8.2-8s21.9,0,32.9,0Z"/>
  <path class="cls-4" d="M118.4,398.8c22.8,0,45.6,0,68.4,0,3.1,0,4.4.6,4.3,4.1-.2,8,0,8-8.1,8-21.5,0-43.1,0-64.6,0,0-4,0-7.9,0-11.9Z"/>
  <path class="cls-2" d="M299,213.3c-7.1,0-14.2-.2-21.3,0-3.1.1-3.9-1-3.7-3.8.2-2.8.1-5.7,0-8.6,0-1.8.5-2.7,2.5-2.7,15.1,0,30.1,0,45.2,0,2,0,2.6.8,2.5,2.7,0,3.2-.1,6.5,0,9.7.1,2.2-.9,2.7-2.9,2.7-7.5,0-14.9,0-22.4,0Z"/>
  <path class="cls-2" d="M223.5,198.3c7,0,13.9,0,20.9,0,2.5,0,3.8.5,3.5,3.2-.4,3.8,1.6,8.7-.8,11.1-2.3,2.2-7.1.6-10.8.6-11.3,0-22.7,0-34,.1-3.2,0-4.2-1-3.8-4,.2-2.1.2-4.3,0-6.3-.4-3.6.6-5,4.6-4.8,6.8.4,13.7.1,20.5.1Z"/>
  <path class="cls-4" d="M372,100.3c-2.6-.3-6.7,1.4-8.8-.6-2.3-2.2-.7-6.4-.8-9.7-.1-6-.7-5.4,5.3-5.5,4.1,0,8.2,0,12.3,0,1.9,0,2.7.7,2.6,2.6,0,3.5-.1,7,0,10.4,0,2.2-.9,2.8-2.9,2.7-2.4-.1-4.7,0-7.7,0Z"/>
  <path class="cls-5" d="M367.9,154.9c0-3.9.2-7.7,0-11.6-.2-3.5,2.2-2.6,4-2.6,1.8,0,4.1-.9,4,2.6-.2,7.7-.2,15.4,0,23.1,0,3.5-2.1,2.6-4,2.6-1.8,0-4.2.9-4-2.6.2-3.8,0-7.7,0-11.6Z"/>
  <path class="cls-5" d="M153.4,154.9c0,3.9-.2,7.7,0,11.6.2,3.5-2.2,2.6-4,2.6-1.8,0-4.1.8-4-2.6.2-7.7.2-15.4,0-23.1,0-3.5,2.2-2.6,4-2.6,1.8,0,4.2-.9,4,2.6-.2,3.8,0,7.7,0,11.6Z"/>
  <path class="cls-5" d="M184.3,155c0,3.7-.1,7.5,0,11.2.1,2.3-.6,3.1-2.9,3-6.6-.2-5.3.5-5.4-5.3,0-6.7.2-13.5,0-20.2-.2-4,2.5-2.8,4.4-2.9,2.1-.1,4.2-.5,3.9,3-.3,3.7,0,7.5,0,11.2Z"/>
  <path class="cls-5" d="M406.6,154.9c0,3.7-.1,7.5,0,11.2,0,2.2-.5,3.1-2.9,3-6.7-.2-5.3.5-5.4-5.3,0-6.7.2-13.5,0-20.2-.2-4,2.4-2.8,4.4-2.9,2.1-.1,4.3-.5,4,3-.3,3.7,0,7.5,0,11.2Z"/>
  <path class="cls-2" d="M360.7,155.2c0,3.9,0,7.7,0,11.6,0,3.5-2.6,2.3-4.2,2.3-1.7,0-3.9.9-3.9-2.4.1-8,0-15.9,0-23.9,0-3.3,2.5-2.1,4-2.1,1.6,0,4.1-1.1,4,2.1,0,4.1,0,8.2,0,12.3Z"/>
  <path class="cls-2" d="M383.2,154.7c0-3.9.1-7.7,0-11.6-.1-3.2,2.2-2.4,3.8-2.4,1.6,0,3.9-1,3.9,2.3-.1,8,0,15.9,0,23.9,0,3-2.1,2.3-3.6,2.2-1.6,0-4.1,1.2-4.1-2.1,0-4.1,0-8.2,0-12.3Z"/>
  <path class="cls-2" d="M138,155.1c0,3.9-.1,7.7,0,11.6.1,3.2-2.1,2.5-3.8,2.4-1.6,0-4,1-3.9-2.3,0-8,0-15.9,0-23.9,0-3.6,2.7-2,4.3-2.2,1.7-.3,3.5-.4,3.4,2.5-.2,4,0,8,0,11.9Z"/>
  <path class="cls-2" d="M168.6,155.2c0,3.9-.1,7.7,0,11.6.1,2.9-1.8,2.5-3.5,2.4-1.7-.2-4.3,1.2-4.3-2.3,0-7.8.1-15.7,0-23.5,0-3.5,2.3-2.5,4.1-2.6,1.8,0,3.9-.6,3.7,2.5-.2,4,0,8,0,11.9Z"/>
  <path class="cls-5" d="M123,155.2c0,3.9-.1,7.7,0,11.6.1,2.9-1.8,2.4-3.4,2.4-1.6,0-3.6.8-3.6-2.2.1-8,.1-15.9,0-23.9,0-3.3,2.2-2.2,3.8-2.4,1.9-.2,3.4,0,3.2,2.6-.2,4,0,8,0,11.9Z"/>
  <path class="cls-5" d="M345.2,154.6c0,4-.2,8,0,11.9.2,3.1-1.8,2.5-3.6,2.6-1.8,0-3.3.2-3.3-2.6.2-7.8.2-15.6,0-23.5,0-2.9,1.8-2.4,3.4-2.4,1.6,0,3.6-.6,3.5,2.3-.2,3.8,0,7.7,0,11.5Z"/>
  <path class="cls-4" d="M149,84.7c3.6,0,8.1-1.5,10.4.6,2.4,2.2.4,6.8.9,10.3.5,3.6-.6,5.4-4.6,4.8-2.2-.3-4.5,0-6.7-.1,0-5.2,0-10.4,0-15.6Z"/>
  <path class="cls-3" d="M174.5,120.9c0,3.4,0,6.7,0,10.1,0,3-2,2.2-3.6,2.3-1.7.1-3.2.2-3.2-2.4.1-6.8.1-13.7,0-20.5,0-2.8,1.7-2.5,3.4-2.5,1.8,0,3.5-.1,3.4,2.6-.2,3.5,0,7,0,10.4Z"/>
  <path class="cls-2" d="M160.3,120.5c0,3.5-.1,7,0,10.4.1,2.6-1.5,2.4-3.2,2.3-1.6,0-3.6.6-3.6-2.3.1-6.9,0-13.9,0-20.8,0-2.7,1.8-2.1,3.4-2.1,1.5,0,3.4-.6,3.3,2.1,0,3.5,0,6.9,0,10.4Z"/>
  <path class="cls-3" d="M396.8,120.9c0,3.4,0,6.7,0,10.1,0,2.9-2,2.2-3.6,2.3-1.7,0-3.2.2-3.2-2.4,0-7,0-13.9,0-20.9,0-2.7,1.9-2.1,3.4-2.1,1.5,0,3.4-.5,3.4,2.2,0,3.6,0,7.2,0,10.8Z"/>
  <path class="cls-2" d="M354.7,120.9c0,3.2-.1,6.5,0,9.7.2,2.6-1.3,2.8-3.3,2.7-1.7,0-3.5.5-3.5-2.4.1-6.8.1-13.7,0-20.5,0-2.5,1.5-2.4,3.1-2.4,1.8,0,3.6-.2,3.5,2.5,0,3.5,0,7,0,10.4Z"/>
  <path class="cls-3" d="M146.1,120.8c0,3.4,0,6.7,0,10.1,0,2.5-1.4,2.5-3.1,2.4-1.6,0-3.6.6-3.6-2.3,0-6.7,0-13.4,0-20.1,0-2.7,1.6-2.9,3.6-2.9,2.1,0,3.2.4,3.1,2.9-.2,3.3,0,6.7,0,10.1Z"/>
  <path class="cls-2" d="M382.6,120.8c0,3.4-.1,6.7,0,10.1.1,2.5-1.4,2.5-3.1,2.4-1.6-.1-3.7.7-3.6-2.3,0-6.8,0-13.7,0-20.5,0-3,2.1-2.4,3.9-2.5,2.1-.2,2.9.6,2.8,2.8-.1,3.4,0,6.7,0,10.1Z"/>
  <path class="cls-3" d="M266.6,205.9c0,7.5,0,7.3-7.5,7.4-2.8,0-4.3-.6-3.8-3.7.2-1.1,0-2.2,0-3.4,0-8.1,0-8,8-8,2.7,0,3.5,1,3.3,3.5-.1,1.4,0,2.7,0,4.1Z"/>
  <path class="cls-5" d="M125.8,120.5c0-3.2.1-6.5,0-9.7-.1-2.4.9-2.9,3-2.9,2.2,0,3.4.3,3.4,3-.2,6.6-.2,13.2,0,19.7,0,2.7-1.4,2.6-3.3,2.6-2,0-3.3-.1-3.1-2.7.2-3.3,0-6.7,0-10Z"/>
  <path class="cls-3" d="M368.4,120.8c0,3.4,0,6.7,0,10.1,0,2.6-1.6,2.3-3.2,2.3-1.6,0-2.9,0-2.9-2.3,0-6.9,0-13.7,0-20.6,0-2.4,1.2-2.6,3.1-2.6,1.8,0,3.2,0,3.1,2.5-.1,3.5,0,7,0,10.5Z"/>
  <path class="cls-3" d="M149,84.7c0,5.2,0,10.4,0,15.6-2.3,1.4-4.9.6-7.3.7-1.3,0-1.7-.8-1.7-1.9,0-4.1,0-8.2,0-12.3,0-1.6.7-2.2,2.3-2.2,2.2,0,4.5,0,6.7,0Z"/>
  <path class="cls-3" d="M118.4,398.8c0,4,0,7.9,0,11.9-9.2.3-9.1.3-9-8.8,0-2.3.6-3.5,3.1-3.3,2,.2,4,0,6,.1Z"/>
</svg>