<?xml version="1.0" encoding="UTF-8"?>
<svg id="Layer_1" data-name="Layer 1" xmlns="http://www.w3.org/2000/svg" version="1.1" viewBox="0 0 512 512">
  <defs>
    <style>
      .cls-1 {
        fill: #adbdcb;
      }

      .cls-1, .cls-2, .cls-3, .cls-4, .cls-5, .cls-6, .cls-7, .cls-8, .cls-9, .cls-10, .cls-11 {
        stroke-width: 0px;
      }

      .cls-2 {
        fill: #000;
      }

      .cls-3 {
        fill: #8fa3ad;
      }

      .cls-4 {
        fill: #6f8595;
      }

      .cls-5 {
        fill: #a1afb9;
      }

      .cls-6 {
        fill: #8a9eaa;
      }

      .cls-7 {
        fill: #4f6b79;
      }

      .cls-8 {
        fill: #c8d6e1;
      }

      .cls-9 {
        fill: #a9a7ae;
      }

      .cls-10 {
        fill: #afc2ca;
      }

      .cls-11 {
        fill: #a4b5c4;
      }
    </style>
  </defs>
  <path class="cls-2" d="M173.6,316.8c-2.7,2.9-4,5.8-4,9.9-1.2,59.1-1.2,110.2,0,171.3,0,1.8,0,10.3-.7,9.5H46.1c-8,0-8.9-.8-8.9-8.8v-162.1h0v-162.2c.3-7.3.8-7.4,6-8.8,2.9-.5,1.9-2.3,1.9-3.8v-37.4c0-6.9,1.2-8.2,8.1-8,4.3.3,5.5-1.1,5.3-5.3-.3-10.7,0-21.5,0-32.4s1.5-7.1,7.3-7.3c8.1,0,12.2-4.3,12.2-12.2v-13.8c0-4.3,2.1-6.3,6.3-6.2h9.2c2.7,0,3.6-.8,3.6-3.4,0-7.4,0-14.7,0-22.1s1.5-9.6,5.3-9.2c6.2.5,4.9,5.5,4.9,9.5,0,7.1,0,14.4,0,21.5,0,2.9.7,4.1,3.7,3.8,2.9-.3,5.8,0,8.8,0,4.8-.3,6.9,1.9,6.9,6.7v22.1c0,2.6.7,3.7,3.4,3.6h8.8c5.9,0,7.4,1.5,7.4,7.3v33.3c0,3.3.8,4.4,4.3,4.3,8.5,0,9.2.8,9.2,9.5v35.9c0,2.7.4,4,3.6,3.8,4.1-.3,5.8,2.2,5.8,6.2v20c0,2.9.8,3.7,3.7,3.7h165.2c3.2,0,3.7-1.1,3.6-3.8-.1-6.3,0-12.6,0-18.9s1.5-7.4,6.4-7c3.4.3,2.9-1.9,2.9-4v-36.9c0-7.1,1.2-8.5,8.2-8.4,3.8,0,5.2-.7,5.2-4.9-.3-11-.1-21.9,0-32.8,0-5.5,1.5-7,7-7.1h2.1c7,0,10.4-3.4,10.4-10.3v-15.4c0-4.4,1.8-6.6,6.4-6.6s9.3,1.8,11.9-.7c2.7-2.7.8-8.1,1-12.3.1-5.3,0-10.6,0-15.9s1.4-5.8,5.1-5.8,5.1,2.5,5.2,5.8c0,7.8.4,15.8,0,23.6-.3,4.8,1.4,6,5.8,5.5,2.3-.3,4.8,0,7.1,0,4.3,0,6.3,1.9,6.2,6.2,0,7.4.1,14.7,0,22.1,0,3.3,1.1,4.3,4.1,4,2.9-.3,5.8,0,8.8,0,4.7,0,6.9,2.1,6.7,6.9-.1,11.1.1,22.2,0,33.3,0,5.1-.3,4.3,4.4,4.4,8.4-.3,9,1,9,9.3v35.9c0,2.7.1,4.5,3.7,4.3,3.8-.3,5.6,2.1,5.6,5.8v326.2c0,9-.5,9.6-9.6,9.6h-114.4c-7.5,0-8.6-1.1-8.6-8.5v-172.9c0-3.6-1-6-3.4-8.5-25.1-25.9-49.9-52.1-74.9-78.2-4-4.1-12.9-4.1-16.9,0l-73.5,77.3v-.2ZM100.7,49.7h-9.2c-2.1,0-3.2.7-3.2,3v16.9c0,1.5.5,2.7,2.3,2.6,3.3,0,6.9,1,10-1h0c3,0,6.2-.3,9.2,0,5.5.8,6.9-1.6,6.3-6.6M434.1,469.6c4.7.1,6-1.2,6-6-.1-46.8,0-93.6,0-140.4h.1v-138.3c0-8.9,0-8.5-9-8.9M424.6,460.1V182.3M405.7,175.9c-7.4,0-6.4-.7-6.4,6.7v277.8M145.8,322v143c0,1.4-.7,3.6,1.1,4.1,3.3.8,7,1.1,10.1,0,2.3-1,1.1-4,1.1-6V178.6c0-.8-.4-2.2-.8-2.2-3.4-.3-6.9-.7-10.1,0-2.5.5-1.2,3.6-1.2,5.3v140.4h-.2ZM274.1,236.5c22.6,23.6,44.3,46.2,66.6,69.5v-66.8c0-2.5-1-2.7-3-2.7h-63.8.2ZM168.4,305.9c22.2-23.4,43.6-46.1,65.4-69-1.1-.3-1.5-.4-1.9-.4h-59.9c-3.3,0-3.4,1.4-3.4,4v65.7-.3h-.2ZM356.6,497.1c31.7-.1,63.2,0,94.9,0M85.4,146.4c0-5.2-.3-10.6,0-15.8.3-4.4-2.5-4-5.2-3.8-2.5,0-5.5-1.1-5.3,3.7.3,10.6.3,21.1,0,31.7,0,4.7,2.9,3.6,5.3,3.7,2.7,0,5.5.5,5.2-4-.3-5.1,0-10.1,0-15.4h0M64.7,146.5v-16.9c0-3.8-2.5-3-4.4-2.9-2.1,0-5.1-1.4-4.9,2.9v32.8c0,4.1,2.5,3.2,4.8,3.2s4.9,1,4.7-3.2c-.3-5.3,0-10.6,0-15.9h-.2ZM135.5,113.4v-13.8h0c0-4.8-.1-9.6,0-14.3.1-3.7-2.1-3.6-4.7-3.6s-4.8-.4-4.7,3.4c0,9.3,0,18.8,0,28.1,0,3.4,2.1,3.4,4.4,3.3M440.3,113.4v-13.8h0v-14.8c0-3.6-2.5-3-4.7-3s-4.7-.8-4.7,2.9v28.7c0,3.4,2.1,3.3,4.4,3.3M68.7,99c0,4.5.3,9.2,0,13.7-.3,3.6,1.6,3.8,4.3,3.7,2.6,0,4.5,0,4.5-3.6-.3-9-.3-18.1,0-27,0-3.7-1.6-4.1-4.7-4.1s-4.4.7-4.1,4c.3,4.4,0,8.8,0,13.3h0Z"/>
  <path class="cls-4" d="M440.3,323.1v140.4c0,4.8-1.2,6.2-6,6-9.5-.3-9.5,0-9.5-9.5V182.3c0-5.2,1.4-6.7,6.6-6.4,8.9.4,9,0,9,8.9v138.3h-.1Z"/>
  <path class="cls-3" d="M414.6,323.1v140c0,4.9-.8,7-6.3,6.6-9.2-.5-9.2,0-9.2-9.3V182.6c0-7.4-.8-6.6,6.4-6.7,5.9,0,8.9,3,8.9,8.9v138.3h.2Z"/>
  <path class="cls-4" d="M389,322.6v140.4c0,5.1-1.1,6.9-6.4,6.6-9-.4-9,0-9-9.5V182.7c0-4.5,2.5-6,6.9-6.9,5.3-1,8.8,1.4,8.6,8.8v137.9h-.1Z"/>
  <path class="cls-3" d="M109.8,323.1v140c0,4.9-.8,7-6.3,6.6-9.2-.5-9.2,0-9.2-9.3V182.6c0-4.5,2.2-6.7,6.4-6.7s8.9,3,8.9,8.9v138.3h.2Z"/>
  <path class="cls-4" d="M68.8,322.5v-140.4c0-4.4.7-6.3,5.8-6.2,9.7.4,9.7,0,9.7,9.7v277.4c0,4.4-2.2,6.6-6.7,6.6-10.1,0-8.6,1.4-8.6-8.6v-138.3h0v-.2Z"/>
  <path class="cls-4" d="M120.1,322.2v-140.4c0-4.8,1.2-6.2,6-5.9,9.5.3,9.6,0,9.6,9.5v277.8c0,5.2-1.2,6.7-6.4,6.4-9-.4-9,0-9-8.9v-138.3h0v-.2Z"/>
  <path class="cls-10" d="M46.2,322.6v-140.5c0-2.1-1.4-5.2,1.2-5.9,3.2-.8,6.7-.3,10.1,0,.8,0,.8,1.4.8,2.2v285.1c0,2.1,1.2,5.1-1.1,6-3.2,1.2-6.9.8-10.1.1-1.8-.4-1.1-2.6-1.1-4.1v-143h.2Z"/>
  <path class="cls-3" d="M462.9,323.7v141.1c0,4.1-.8,6-5.3,5.5-3.7-.4-7.3.7-7.3-5.5.1-94.7.1-189.4,0-284.1,0-5.8,3.3-4.7,6.6-4.7s6-.5,6,4.7c-.3,47.7,0,95.4,0,143.1h0Z"/>
  <path class="cls-3" d="M351,322v-140.4c0-1.8-1.2-4.8,1.4-5.3,3.3-.8,6.7-.7,10.1,0,.4,0,.7,1.4.8,2.2v284.5c0,2.1,1.2,5.2-1.1,6-3.2,1.2-6.9,1-10.1,0-1.8-.4-1.1-2.6-1.1-4.1v-143.1.3h0Z"/>
  <path class="cls-3" d="M145.8,322v-140.4c0-1.9-1.2-4.8,1.2-5.3,3.3-.7,6.7-.1,10.1,0,.3,0,.7,1.4.8,2.2.1,1.2,0,2.3.1,3.6v280.9c0,2.1,1.5,5.5-1.1,6.2-3,1.2-7,1-10.3,0-1.8-.4-1.1-2.7-1.1-4.3v-143h.3Z"/>
  <path class="cls-7" d="M407.4,480.4h50.7c3.7.1,5.1,1.1,5.1,4.9,0,7.8-3.8,11.7-11.4,11.8h-94.9c-4.5,0-6.3-1.2-5.8-5.8.3-11,0-11,11.2-11h45.1-.1,0Z"/>
  <path class="cls-9" d="M307.1,226.2h-30.3c-3.2,0-4.3-1-4-4.1.3-4.3.1-8.5,0-12.8,0-2.6.7-3.6,3.4-3.6h62c2.5,0,3.3,1,3.2,3.3,0,4.7-.1,9.2,0,13.8,0,2.9-1.2,3.4-3.7,3.3h-30.7.1Z"/>
  <path class="cls-7" d="M405.9,71.3c-3.6-.4-8.8.7-11.7-2.1-3.2-3-1.4-7.5-1.5-12.1-.1-8.2-1-7.4,7.3-7.5h16.9c2.6,0,3.7,1,3.6,3.6,0,4.8-.1,9.6,0,14.3,0,3-1.2,3.8-4,3.7h-10.6,0Z"/>
  <path class="cls-11" d="M399.9,146.3c0-5.2.3-10.6,0-15.8-.3-4.3,2.3-4,4.9-3.7,2.3.3,6.2-1.9,6.2,3.3,0,10.7-.1,21.4,0,32.2,0,4.8-3.3,3.3-5.6,3.4-2.5,0-5.6,1.1-5.5-3.6.3-5.2,0-10.6,0-15.8h0Z"/>
  <path class="cls-11" d="M106.5,146.1c0,5.2-.3,10.6,0,15.8.3,4.1-2.3,4-4.9,3.6-2.3-.3-6.2,1.9-6.2-3.4,0-10.7,0-21.4,0-32.2,0-4.9-1.1-3.4,6.2-3.3,2.6-.3,4.9-.7,4.9,3.6-.3,5.2,0,10.6,0,15.8v.3h0v-.2Z"/>
  <path class="cls-1" d="M148.9,146.1v15.8c0,2.5-.4,4-3.4,3.8-8.6,1-8.5.8-8-7.7.5-7.7.3-18.2,0-27.6-.1-4.5,2.5-4.1,5.2-3.8,2.5.3,6.6-2.1,6.3,3.6-.3,5.2,0,10.6,0,15.8h-.1Z"/>
  <path class="cls-1" d="M453.7,146.3c0,5.1-.1,10.3,0,15.4,0,3-.7,4.3-4,4.1-9.2-.3-7.3.7-7.4-7.3,0-9.2.3-18.5,0-27.7-.3-5.5,3.3-3.8,6-4,2.9,0,5.9-.7,5.5,4.1-.4,5.1,0,10.3,0,15.4h-.1Z"/>
  <path class="cls-5" d="M421.4,145.9c0-5.2.1-10.6,0-15.8-.1-4.5,3-3.3,5.2-3.2,2.2,0,5.3-1.2,5.2,3.2-.1,10.8-.1,21.8,0,32.6,0,4.1-2.9,3-4.9,3s-5.5,1.6-5.5-2.9v-16.9h0Z"/>
  <path class="cls-5" d="M85.4,146.4c0,5.1-.3,10.3,0,15.4.4,4.5-1,4.1-5.2,4.1s-5.5.8-5.3-3.8c.3-10.6.3-21.1,0-31.7,0-4.7,2.9-3.6,5.3-3.7,2.7,0,5.5-.5,5.2,3.8-.3,5.2,0,10.6,0,15.8h0Z"/>
  <path class="cls-5" d="M127.3,146.1c0,5.3-.3,10.6,0,15.9.3,4.3-2.5,3.7-4.9,3.6-2.5,0-5.6,1.2-5.6-3.6.3-10.6.3-21.3,0-31.8,0-4.8,3.2-3.4,5.5-3.6,2.5,0,5.2-.8,5.1,3.6-.3,5.3,0,10.6,0,15.9h0Z"/>
  <path class="cls-8" d="M64.7,146.5v15.9c0,4.1-2.5,3.2-4.7,3.2s-4.8.8-4.8-3.2v-32.8c0-4.3,3-2.7,4.9-2.9,2.1,0,4.7-1,4.4,2.9-.3,5.6,0,11.2,0,16.9h.2Z"/>
  <path class="cls-1" d="M369.5,145.7c0,5.5-.3,11,0,16.3.3,4.3-2.6,3.4-4.9,3.6-2.5,0-4.5.3-4.5-3.6.3-10.7.3-21.5,0-32.2,0-4,2.5-3.3,4.7-3.3s4.9-.8,4.8,3.2c-.3,5.2,0,10.6,0,15.8v.3h-.1Z"/>
  <path class="cls-7" d="M100.7,49.7c5.1-.3,11.1-1.9,14.3,1,3.3,3,1,9,1.2,14.1.7,4.9-.8,7.4-6.3,6.6-3-.4-6.2,0-9.2,0v-21.4h0v-.3h0Z"/>
  <path class="cls-4" d="M135.5,99.5v13.8c0,4.1-2.7,3-4.9,3.2-2.3,0-4.4.3-4.4-3.3,0-9.3,0-18.8,0-28.1,0-3.8,2.3-3.4,4.7-3.4s4.8,0,4.7,3.6c-.3,4.8,0,9.6,0,14.3h-.1Z"/>
  <path class="cls-6" d="M116,99c0,4.8,0,9.6,0,14.3,0,3.6-2.2,3.2-4.4,3.2s-4.9.8-4.9-3.2c0-9.6-.5-19.1,0-28.7.3-4.3,2.1-2.5,4.7-2.9s4.7,0,4.7,2.9v14.3h0Z"/>
  <path class="cls-4" d="M440.3,99.5v13.8c0,4-2.7,3-4.9,3.2-2.3,0-4.4.3-4.4-3.3v-28.7c0-3.7,2.6-2.9,4.7-2.9s4.7-.7,4.7,3v14.8h-.1Z"/>
  <path class="cls-6" d="M382.6,99.6v13.2c.3,3.7-1.9,3.8-4.5,3.7-2.3,0-4.8.5-4.8-3.3.1-9.3.1-18.8,0-28.1,0-3.4,2.1-3.3,4.4-3.3s4.9,0,4.8,3.4v14.4s.1,0,.1,0Z"/>
  <path class="cls-4" d="M96.5,99.4v13.8c0,3.4-1.9,3.4-4.3,3.3-2.2,0-4.9.8-4.9-3.2v-27.6c0-3.7,2.2-4,4.9-4s4.4.5,4.3,4c-.3,4.5,0,9.2,0,13.8v-.3.2Z"/>
  <path class="cls-6" d="M420.8,99.4c0,4.7-.1,9.2,0,13.8.1,3.4-1.9,3.4-4.3,3.3-2.2,0-5.1,1-4.9-3.2v-28.1c0-4.1,2.9-3.3,5.3-3.4,2.9-.3,4,.8,3.8,3.8-.1,4.7,0,9.2,0,13.8h.1Z"/>
  <rect class="cls-4" x="246.5" y="205.8" width="16.3" height="20.4" rx="2.1" ry="2.1"/>
  <path class="cls-10" d="M68.7,99v-13.3c0-3.3,1.2-4,4.1-4s4.7.4,4.7,4.1c-.3,9-.3,18.1,0,27,0,3.7-1.9,3.6-4.5,3.6s-4.5,0-4.3-3.7c.3-4.5,0-9.2,0-13.7h0Z"/>
  <path class="cls-4" d="M401.5,99.4v13.8c-.1,3.6-2.3,3.2-4.5,3.2s-4,0-4-3.2v-28.2c0-3.3,1.6-3.6,4.3-3.6s4.4,0,4.3,3.4c-.1,4.8,0,9.6,0,14.4h0v.2Z"/>
  <path class="cls-4" d="M100.7,49.9v21.4c-3.2,1.9-6.7,1-10,1s-2.3-1-2.3-2.6v-16.9c0-2.2,1-3,3.2-3h9.2,0Z"/>
  <path class="cls-7" d="M58.6,480.4h-8.2c-3.4-.3-4.3,1.2-4.3,4.5,0,12.5-.3,12.5,12.3,12.1h88.6c11.1,0,10.8,0,11.1-11,0-4.1-1-5.6-5.3-5.6-31.4.1-62.8,0-94.2,0h10.1"/>
  <path class="cls-9" d="M202.2,226.2h-30.3c-3.2,0-4.3-1-4-4.1.3-4.3.1-8.5,0-12.8,0-2.6.7-3.6,3.4-3.6h62c2.5,0,3.3,1,3.2,3.3,0,4.7-.1,9.2,0,13.8,0,2.9-1.2,3.4-3.7,3.3h-30.7.1Z"/>
  <path class="cls-1" d="M389.4,145.5c0,5.5-.3,11,0,16.3.3,4.3-2.6,3.4-4.9,3.6-2.5,0-4.5.3-4.5-3.6.3-10.7.3-21.5,0-32.2,0-4,2.5-3.3,4.7-3.3s4.9-.8,4.8,3.2c-.3,5.2,0,10.6,0,15.8v.3h-.1Z"/>
</svg>